<svg xmlns="http://www.w3.org/2000/svg" viewBox="0 0 156.89 43.05"><defs><style>.cls-1{fill:#84b59f;}.cls-2{fill:none;stroke:#50808e;stroke-miterlimit:10;stroke-width:0.97px;}</style></defs><g id="Layer_2" data-name="Layer 2"><g id="Layer_1-2" data-name="Layer 1"><path class="cls-1" d="M14.13,41.48l-.91-2.12a1.52,1.52,0,0,0-1.38-.9H6.2a1.51,1.51,0,0,0-1.37.9l-.91,2.12a1.48,1.48,0,0,1-1.37.9h-1A1.5,1.5,0,0,1,.12,40.29L6.67,25.14a1.51,1.51,0,0,1,1.38-.91H10a1.48,1.48,0,0,1,1.37.91l6.55,15.15a1.49,1.49,0,0,1-1.37,2.09H15.5A1.48,1.48,0,0,1,14.13,41.48ZM7.66,32.82h0A1.49,1.49,0,0,0,9,34.9H9a1.49,1.49,0,0,0,1.37-2.08h0A1.49,1.49,0,0,0,7.66,32.82Z"/><path class="cls-1" d="M33,37.7A3.32,3.32,0,0,0,35.75,39a3.26,3.26,0,0,0,2.71-1.25,5.38,5.38,0,0,0,1-3.44v-8a2,2,0,0,1,2-2h0a2,2,0,0,1,2,2v8.12a8,8,0,0,1-2.18,6.07,7.67,7.67,0,0,1-5.58,2.11,7.68,7.68,0,0,1-5.59-2.13,8,8,0,0,1-2.2-6V26.26a2,2,0,0,1,2-2h0a2,2,0,0,1,2,2v8A5.38,5.38,0,0,0,33,37.7Z"/><path class="cls-1" d="M70.23,30.26a5.75,5.75,0,0,1-1.94,4.8,1.89,1.89,0,0,0-.3,2.55l1.32,1.87a1.84,1.84,0,0,1-1.5,2.9h-.46a1.81,1.81,0,0,1-1.51-.79l-2.93-4.21a1.85,1.85,0,0,0-1.51-.79h0a1.84,1.84,0,0,0-1.84,1.84v2.11a1.84,1.84,0,0,1-1.84,1.84h-.37a1.84,1.84,0,0,1-1.84-1.84V26.08a1.84,1.84,0,0,1,1.84-1.85h5q4.23,0,6,1.43C69.63,26.61,70.23,28.15,70.23,30.26Zm-4.88,2.15a2.74,2.74,0,0,0,.75-2.14,2.28,2.28,0,0,0-.78-2,4.93,4.93,0,0,0-2.73-.55H61.4a1.84,1.84,0,0,0-1.84,1.84v1.7a1.84,1.84,0,0,0,1.84,1.84h1.12A4.37,4.37,0,0,0,65.35,32.41Z"/><path class="cls-1" d="M97.25,39.88a9.9,9.9,0,0,1-13.55,0A9,9,0,0,1,81,33.19a9,9,0,0,1,2.75-6.68,9.88,9.88,0,0,1,13.55,0A9,9,0,0,1,100,33.19,9,9,0,0,1,97.25,39.88ZM95.88,33.2a6,6,0,0,0-1.56-4.14,5.14,5.14,0,0,0-7.66,0A6,6,0,0,0,85.1,33.2a5.88,5.88,0,0,0,1.56,4.13,5.16,5.16,0,0,0,7.66,0A5.88,5.88,0,0,0,95.88,33.2Z"/><path class="cls-1" d="M125.94,30.26a5.75,5.75,0,0,1-1.94,4.8,1.88,1.88,0,0,0-.29,2.55L125,39.48a1.84,1.84,0,0,1-1.51,2.9h-.46a1.82,1.82,0,0,1-1.51-.79l-2.93-4.21a1.84,1.84,0,0,0-1.51-.79h0a1.85,1.85,0,0,0-1.84,1.84v2.11a1.84,1.84,0,0,1-1.84,1.84h-.37a1.84,1.84,0,0,1-1.84-1.84V26.08a1.85,1.85,0,0,1,1.84-1.85h5q4.23,0,6,1.43A5.52,5.52,0,0,1,125.94,30.26Zm-4.88,2.15a2.74,2.74,0,0,0,.75-2.14,2.28,2.28,0,0,0-.78-2,4.87,4.87,0,0,0-2.72-.55h-1.2a1.85,1.85,0,0,0-1.84,1.84v1.7a1.85,1.85,0,0,0,1.84,1.84h1.12A4.36,4.36,0,0,0,121.06,32.41Z"/><path class="cls-1" d="M150.42,41.48l-.91-2.12a1.49,1.49,0,0,0-1.37-.9H142.5a1.49,1.49,0,0,0-1.37.9l-.91,2.12a1.5,1.5,0,0,1-1.37.9h-1.06a1.5,1.5,0,0,1-1.37-2.09L143,25.14a1.51,1.51,0,0,1,1.37-.91h2a1.51,1.51,0,0,1,1.37.91l6.55,15.15a1.5,1.5,0,0,1-1.37,2.09h-1A1.5,1.5,0,0,1,150.42,41.48ZM144,32.82h0a1.49,1.49,0,0,0,1.37,2.08h0a1.49,1.49,0,0,0,1.37-2.08h0A1.49,1.49,0,0,0,144,32.82Z"/><path class="cls-2" d="M16.19,41.48l-.91-2.12a1.52,1.52,0,0,0-1.38-.9H8.27a1.52,1.52,0,0,0-1.38.9L6,41.48a1.48,1.48,0,0,1-1.37.9H3.56a1.49,1.49,0,0,1-1.37-2.09L8.74,25.14a1.48,1.48,0,0,1,1.37-.91h2a1.48,1.48,0,0,1,1.37.91L20,40.29a1.49,1.49,0,0,1-1.37,2.09H17.56A1.48,1.48,0,0,1,16.19,41.48ZM9.72,32.81h0a1.49,1.49,0,0,0,1.37,2.09h0a1.49,1.49,0,0,0,1.37-2.08h0A1.49,1.49,0,0,0,9.72,32.81Z"/><path class="cls-2" d="M35.09,37.69a3.57,3.57,0,0,0,5.44,0,5.4,5.4,0,0,0,1-3.44v-8a2,2,0,0,1,2-2h0a2,2,0,0,1,2,2v8.12a8,8,0,0,1-2.19,6.07,7.67,7.67,0,0,1-5.58,2.11,7.7,7.7,0,0,1-5.59-2.13,8,8,0,0,1-2.2-6V26.26a2,2,0,0,1,2-2h0a2,2,0,0,1,2,2v8A5.28,5.28,0,0,0,35.09,37.69Z"/><path class="cls-2" d="M72.29,30.26a5.75,5.75,0,0,1-1.94,4.8,1.89,1.89,0,0,0-.3,2.55l1.32,1.87a1.83,1.83,0,0,1-1.5,2.9h-.46a1.82,1.82,0,0,1-1.51-.79L65,37.38a1.85,1.85,0,0,0-1.51-.79h0a1.84,1.84,0,0,0-1.84,1.84v2.11a1.84,1.84,0,0,1-1.84,1.84h-.37a1.84,1.84,0,0,1-1.84-1.84V26.07a1.84,1.84,0,0,1,1.84-1.84h5q4.23,0,6,1.43C71.69,26.61,72.29,28.15,72.29,30.26Zm-4.88,2.15a2.74,2.74,0,0,0,.75-2.14,2.28,2.28,0,0,0-.78-2,4.92,4.92,0,0,0-2.72-.55h-1.2a1.84,1.84,0,0,0-1.84,1.84v1.7a1.84,1.84,0,0,0,1.84,1.84h1.12A4.36,4.36,0,0,0,67.41,32.41Z"/><path class="cls-2" d="M99.32,39.88a9.92,9.92,0,0,1-13.56,0A9,9,0,0,1,83,33.19a9,9,0,0,1,2.75-6.68,9.89,9.89,0,0,1,13.56,0,9,9,0,0,1,2.75,6.68A9,9,0,0,1,99.32,39.88ZM97.94,33.2a5.92,5.92,0,0,0-1.56-4.14,5.14,5.14,0,0,0-7.66,0,6.29,6.29,0,0,0,0,8.27,5.16,5.16,0,0,0,7.66,0A5.88,5.88,0,0,0,97.94,33.2Z"/><path class="cls-2" d="M128,30.26a5.72,5.72,0,0,1-1.94,4.8,1.88,1.88,0,0,0-.29,2.55l1.32,1.87a1.84,1.84,0,0,1-1.5,2.9h-.47a1.84,1.84,0,0,1-1.51-.79l-2.92-4.21a1.87,1.87,0,0,0-1.52-.79h0a1.85,1.85,0,0,0-1.84,1.84v2.11a1.84,1.84,0,0,1-1.84,1.84h-.37a1.84,1.84,0,0,1-1.84-1.84V26.07a1.85,1.85,0,0,1,1.84-1.84h5c2.82,0,4.84.48,6,1.43A5.52,5.52,0,0,1,128,30.26Zm-4.88,2.15a2.74,2.74,0,0,0,.75-2.14,2.28,2.28,0,0,0-.77-2,4.93,4.93,0,0,0-2.73-.55h-1.2a1.85,1.85,0,0,0-1.84,1.84v1.7a1.85,1.85,0,0,0,1.84,1.84h1.12A4.34,4.34,0,0,0,123.12,32.41Z"/><path class="cls-2" d="M152.48,41.48l-.9-2.12a1.52,1.52,0,0,0-1.38-.9h-5.64a1.51,1.51,0,0,0-1.37.9l-.91,2.12a1.48,1.48,0,0,1-1.37.9h-1a1.5,1.5,0,0,1-1.38-2.09L145,25.14a1.51,1.51,0,0,1,1.37-.91h2a1.48,1.48,0,0,1,1.37.91l6.55,15.15a1.5,1.5,0,0,1-1.37,2.09h-1A1.5,1.5,0,0,1,152.48,41.48ZM146,32.81h0a1.49,1.49,0,0,0,1.37,2.09h0a1.49,1.49,0,0,0,1.37-2.08h0A1.49,1.49,0,0,0,146,32.81Z"/><path class="cls-1" d="M34.6,18.14,33.69,16a1.5,1.5,0,0,0-1.38-.9H26.67a1.5,1.5,0,0,0-1.37.9l-.91,2.11a1.48,1.48,0,0,1-1.37.91H22A1.49,1.49,0,0,1,20.6,17L27.14,1.8A1.52,1.52,0,0,1,28.52.9h1.95a1.49,1.49,0,0,1,1.37.9L38.39,17A1.49,1.49,0,0,1,37,19.05H36A1.48,1.48,0,0,1,34.6,18.14ZM28.13,9.48h0a1.49,1.49,0,0,0,1.37,2.09h0a1.49,1.49,0,0,0,1.37-2.08h0A1.49,1.49,0,0,0,28.13,9.48Z"/><path class="cls-1" d="M50.44.9H52a1.25,1.25,0,0,1,1.26,1.25V17.8A1.25,1.25,0,0,1,52,19.05H50.44a1.25,1.25,0,0,1-1.25-1.25V2.15A1.25,1.25,0,0,1,50.44.9Z"/><path class="cls-1" d="M69.73,4.52a1.6,1.6,0,0,0-.58,1.28,1.44,1.44,0,0,0,.71,1.25,13,13,0,0,0,3.3,1.11,9.21,9.21,0,0,1,4,1.91,4.7,4.7,0,0,1,1.43,3.71,4.89,4.89,0,0,1-1.83,4A7.32,7.32,0,0,1,72,19.26a10.81,10.81,0,0,1-6.35-2.05,1.74,1.74,0,0,1-.3-2.51l.24-.29a1.73,1.73,0,0,1,2.35-.29A7.27,7.27,0,0,0,72,15.67a2.82,2.82,0,0,0,1.75-.48,1.61,1.61,0,0,0,0-2.59,9,9,0,0,0-2.68-1,11.46,11.46,0,0,1-4.63-2A4.61,4.61,0,0,1,65,5.87a4.68,4.68,0,0,1,1.86-4A7.41,7.41,0,0,1,71.46.49a11,11,0,0,1,3.63.62,9.8,9.8,0,0,1,1.58.69,1.75,1.75,0,0,1,.59,2.53l-.09.11A1.77,1.77,0,0,1,74.85,5,7.43,7.43,0,0,0,71.33,4,2.46,2.46,0,0,0,69.73,4.52Z"/><path class="cls-1" d="M103,.9h.28a1.89,1.89,0,0,1,1.89,1.89V17.16a1.89,1.89,0,0,1-1.89,1.89H103a1.88,1.88,0,0,1-1.88-1.89V13.79a1.89,1.89,0,0,0-1.89-1.88H95.78a1.88,1.88,0,0,0-1.89,1.88v3.37A1.88,1.88,0,0,1,92,19.05h-.28a1.88,1.88,0,0,1-1.89-1.89V2.79A1.89,1.89,0,0,1,91.73.9H92a1.89,1.89,0,0,1,1.88,1.89V6.6a1.88,1.88,0,0,0,1.89,1.88h3.44a1.89,1.89,0,0,0,1.89-1.88V2.79A1.89,1.89,0,0,1,103,.9Z"/><path class="cls-1" d="M130,18.14,129,16a1.48,1.48,0,0,0-1.37-.9H122a1.48,1.48,0,0,0-1.37.9l-.91,2.11a1.51,1.51,0,0,1-1.37.91h-1.06A1.5,1.5,0,0,1,116,17L122.5,1.8a1.51,1.51,0,0,1,1.37-.9h2a1.51,1.51,0,0,1,1.37.9L133.75,17a1.5,1.5,0,0,1-1.37,2.09h-1.06A1.51,1.51,0,0,1,130,18.14Zm-6.47-8.66h0a1.5,1.5,0,0,0,1.38,2.09h0a1.49,1.49,0,0,0,1.37-2.08h0A1.5,1.5,0,0,0,123.48,9.48Z"/><path class="cls-2" d="M36.66,18.14,35.75,16a1.5,1.5,0,0,0-1.37-.9H28.74a1.5,1.5,0,0,0-1.38.9l-.91,2.11a1.48,1.48,0,0,1-1.37.91H24A1.49,1.49,0,0,1,22.66,17L29.21,1.8A1.49,1.49,0,0,1,30.58.9h2a1.52,1.52,0,0,1,1.38.9L40.46,17a1.5,1.5,0,0,1-1.38,2.09H38A1.48,1.48,0,0,1,36.66,18.14ZM30.19,9.48h0a1.5,1.5,0,0,0,1.37,2.09h0a1.5,1.5,0,0,0,1.38-2.08h0A1.5,1.5,0,0,0,30.19,9.48Z"/><path class="cls-2" d="M52.5.9h1.55A1.25,1.25,0,0,1,55.3,2.15V17.8a1.25,1.25,0,0,1-1.25,1.25H52.5a1.25,1.25,0,0,1-1.25-1.25V2.15A1.25,1.25,0,0,1,52.5.9Z"/><path class="cls-2" d="M71.8,4.52a1.57,1.57,0,0,0-.59,1.27,1.43,1.43,0,0,0,.72,1.26,12.73,12.73,0,0,0,3.29,1.11,9.16,9.16,0,0,1,4,1.91,4.67,4.67,0,0,1,1.43,3.71,4.92,4.92,0,0,1-1.83,4A7.29,7.29,0,0,1,74,19.26a10.84,10.84,0,0,1-6.36-2.05,1.74,1.74,0,0,1-.3-2.51l.25-.29A1.71,1.71,0,0,1,70,14.12a7.34,7.34,0,0,0,4.14,1.55,2.87,2.87,0,0,0,1.76-.48,1.54,1.54,0,0,0,.63-1.3,1.5,1.5,0,0,0-.67-1.29,8.78,8.78,0,0,0-2.68-1,11.53,11.53,0,0,1-4.63-2A4.61,4.61,0,0,1,67,5.87a4.68,4.68,0,0,1,1.86-4A7.43,7.43,0,0,1,73.52.49a11.05,11.05,0,0,1,3.64.62,11.22,11.22,0,0,1,1.58.68,1.76,1.76,0,0,1,.58,2.54l-.08.11A1.78,1.78,0,0,1,76.91,5,7.43,7.43,0,0,0,73.39,4,2.43,2.43,0,0,0,71.8,4.52Z"/><path class="cls-2" d="M105.05.9h.29a1.88,1.88,0,0,1,1.88,1.89V17.16a1.89,1.89,0,0,1-1.88,1.89h-.29a1.89,1.89,0,0,1-1.88-1.89V13.79a1.88,1.88,0,0,0-1.88-1.88H97.84A1.89,1.89,0,0,0,96,13.79v3.37a1.89,1.89,0,0,1-1.88,1.89h-.28a1.89,1.89,0,0,1-1.89-1.89V2.79A1.89,1.89,0,0,1,93.79.9h.28A1.88,1.88,0,0,1,96,2.79V6.6a1.89,1.89,0,0,0,1.89,1.88h3.45a1.88,1.88,0,0,0,1.88-1.88V2.79A1.88,1.88,0,0,1,105.05.9Z"/><path class="cls-2" d="M132,18.14,131.1,16a1.48,1.48,0,0,0-1.37-.9h-5.64a1.5,1.5,0,0,0-1.37.9l-.91,2.11a1.51,1.51,0,0,1-1.37.91h-1A1.5,1.5,0,0,1,118,17L124.56,1.8a1.51,1.51,0,0,1,1.37-.9h2a1.5,1.5,0,0,1,1.37.9L135.81,17a1.5,1.5,0,0,1-1.37,2.09h-1.05A1.51,1.51,0,0,1,132,18.14Zm-6.46-8.66h0a1.49,1.49,0,0,0,1.37,2.09h0a1.49,1.49,0,0,0,1.37-2.08h0A1.49,1.49,0,0,0,125.55,9.48Z"/></g></g></svg>