<svg xmlns="http://www.w3.org/2000/svg" viewBox="0 0 33.58 18.63"><defs><style>.cls-1{fill:#fff;}</style></defs><g id="Layer_2" data-name="Layer 2"><g id="Layer_1-2" data-name="Layer 1"><path class="cls-1" d="M17,18.5c0,.09,0,.13-.08.13H11c-.09,0-.13-.05-.13-.15v-.35c0-.12,0-.18.13-.18l1,.2c.14,0,.95-.28.93-.43a17.09,17.09,0,0,1-1.23-2.55,10.69,10.69,0,0,1-.51-2.57c-.07-.18-.16-.26-.27-.26H4.7a.33.33,0,0,0-.2.15,16.07,16.07,0,0,0-.61,1.63,15.72,15.72,0,0,0-.54,1.74,10.12,10.12,0,0,0-.21,1.24c0,.57.07.85.21.85H5.3c.1,0,.16.06.16.18v.37a.12.12,0,0,1-.13.13H.13c-.09,0-.13,0-.13-.13v-.11c0-.08,0-.12.1-.12L1.21,18c.19,0,.44-.4.76-1.21s1.44-3,3-6.84c1-2.43,2.11-5.52,3.57-9,.09-.27.19-.42.28-.45q.36-.1.93-.33c.06,0,.13,0,.2.14s0,.25-.1.39a1.14,1.14,0,0,0-.38.77,2.83,2.83,0,0,0,.18,1c.46,1.29,1.29,3.69,2.5,7.22s2.05,5.82,2.53,6.85.78,1.46,1,1.46h1.21c.07,0,.11.06.11.18Zm-6.37-7.33c-.35-1-1.22-1.79-1.62-3S8.68,5.32,8.25,4c0-.11-.06-.18-.11-.2A.92.92,0,0,0,8,4Q6.4,7.95,5.71,9.59C5.24,10.68,5,11.25,5,11.28s0,.08.12.08h5.44C10.65,11.36,10.67,11.3,10.63,11.17Z"/><path class="cls-1" d="M17.62,18.6H11.68s-.18,0-.18-.21V18c0-.22.13-.24.18-.24h0l1,.21a2.13,2.13,0,0,0,.86-.38,3.11,3.11,0,0,0-.22-.4,10.87,10.87,0,0,1-1-2.13,9.11,9.11,0,0,1-.49-2.36c0-.1,0-.19,0-.21s-.14-.22-.22-.22H5.4a.22.22,0,0,0-.15.12,15.54,15.54,0,0,0-.61,1.62q-.43,1.27-.54,1.74A10.1,10.1,0,0,0,3.89,17c0,.75.13.79.15.79H6c.13,0,.21.09.21.24v.37A.17.17,0,0,1,6,18.6H.83a.17.17,0,0,1-.19-.19v-.1c0-.16.1-.19.15-.19l1.12-.32c.09,0,.3-.15.71-1.17.11-.28.31-.72.6-1.33.55-1.19,1.38-3,2.43-5.51.46-1.09.94-2.34,1.45-3.66C7.71,4.53,8.41,2.71,9.21.82c.1-.29.21-.45.32-.49A9.51,9.51,0,0,0,10.45,0c.09,0,.19,0,.28.16s.1.26-.11.46a1.13,1.13,0,0,0-.37.74,2.68,2.68,0,0,0,.18.94c.46,1.27,1.3,3.71,2.51,7.23s2.05,5.81,2.52,6.84c.58,1.24.82,1.42.92,1.42h1.21c.06,0,.16,0,.16.24v.37C17.75,18.58,17.66,18.6,17.62,18.6Zm-5.94-.68s-.07,0-.07.12v.35c0,.09.05.09.07.09h5.94s0-.06,0-.07V18c0-.06,0-.12-.05-.12H16.38c-.14,0-.4-.16-1-1.49-.47-1-1.32-3.34-2.52-6.86s-2.05-5.95-2.51-7.22a3.21,3.21,0,0,1-.19-1,1.21,1.21,0,0,1,.41-.81c.18-.18.12-.28.09-.32s-.1-.12-.13-.11c-.38.15-.69.25-.93.32,0,0-.13.09-.25.42-.8,1.9-1.5,3.71-2.11,5.31-.51,1.32-1,2.57-1.45,3.67-1,2.53-1.89,4.32-2.44,5.51-.28.61-.48,1-.59,1.32-.44,1.1-.67,1.24-.81,1.25L.8,18.23s0,0,0,.08v.1c0,.06,0,.07.07.07H6c.06,0,.07,0,.07-.07V18c0-.11,0-.12-.09-.12H4c-.18,0-.26-.28-.26-.91A10.47,10.47,0,0,1,4,15.76,16.35,16.35,0,0,1,4.53,14a14.38,14.38,0,0,1,.62-1.63.35.35,0,0,1,.23-.19h6.23c.13,0,.24.1.32.3a.87.87,0,0,1,0,.24,8.74,8.74,0,0,0,.48,2.33,10.12,10.12,0,0,0,1,2.11,3.23,3.23,0,0,1,.23.44.14.14,0,0,1,0,.12,2.31,2.31,0,0,1-1,.39h0Zm-.42-6.59H5.82c-.16,0-.18-.09-.18-.14a18.22,18.22,0,0,1,.71-1.72c.46-1.08,1.24-3,2.31-5.58a1.05,1.05,0,0,1,.14-.22l0,0,0,0c.06,0,.1.11.13.24a10.75,10.75,0,0,1,.39,2.15,10.58,10.58,0,0,0,.37,2,7.29,7.29,0,0,0,.87,1.64,6.06,6.06,0,0,1,.75,1.36h0a.27.27,0,0,1,0,.22A.15.15,0,0,1,11.26,11.33Zm-5.5-.13h5.52s0,0,0-.11a5.85,5.85,0,0,0-.73-1.34A6.41,6.41,0,0,1,9.65,8.1a10.18,10.18,0,0,1-.37-2,12.1,12.1,0,0,0-.39-2.14.34.34,0,0,0-.05-.13l-.07.14C7.7,6.55,6.92,8.43,6.46,9.52c-.59,1.38-.69,1.65-.7,1.68Z"/><path class="cls-1" d="M15.19,9.41,15,8.94h-.91l-.2.47h-.52l.94-2.18h.47l.94,2.18Zm-.66-1.53-.28.63h.55Z"/><path class="cls-1" d="M16.89,7.23h.49V9.41h-.49Z"/><path class="cls-1" d="M19.36,7.67a.18.18,0,0,0-.07.15.17.17,0,0,0,.08.15,1.5,1.5,0,0,0,.4.13,1.19,1.19,0,0,1,.48.23.58.58,0,0,1,.17.45.57.57,0,0,1-.22.47.9.9,0,0,1-.58.19,1.34,1.34,0,0,1-.93-.39L19,8.7a1,1,0,0,0,.65.31A.33.33,0,0,0,19.84,9a.19.19,0,0,0,.08-.16.18.18,0,0,0-.08-.15,1.07,1.07,0,0,0-.32-.12A1.34,1.34,0,0,1,19,8.28a.53.53,0,0,1-.18-.45A.56.56,0,0,1,19,7.35a.88.88,0,0,1,.55-.17,1.36,1.36,0,0,1,.44.08,1.28,1.28,0,0,1,.38.21l-.25.35a1,1,0,0,0-.58-.21A.27.27,0,0,0,19.36,7.67Z"/><path class="cls-1" d="M23.12,7.23h.49V9.41h-.49V8.55h-.87v.86h-.48V7.23h.48v.91h.87Z"/><path class="cls-1" d="M26.63,9.41l-.2-.47h-.92l-.2.47h-.52l.94-2.18h.47l.94,2.18ZM26,7.88l-.27.63h.54Z"/><path class="cls-1" d="M16.71,12.52l-.21-.47h-.91l-.2.47h-.52l.94-2.18h.47l.94,2.18ZM16.05,11l-.28.63h.55Z"/><path class="cls-1" d="M18.93,12a.4.4,0,0,0,.32.16.41.41,0,0,0,.33-.16.63.63,0,0,0,.12-.41v-1.2h.48v1.22a.92.92,0,0,1-.26.72.9.9,0,0,1-.67.26.94.94,0,0,1-.67-.26,1,1,0,0,1-.26-.72V10.34h.48v1.2A.63.63,0,0,0,18.93,12Z"/><path class="cls-1" d="M23.39,11.06a.65.65,0,0,1-.41.68l.55.78h-.6l-.48-.7h-.34v.7h-.49V10.34h.83a1.19,1.19,0,0,1,.72.17A.64.64,0,0,1,23.39,11.06Zm-.59.26a.33.33,0,0,0,.09-.26.3.3,0,0,0-.09-.24.64.64,0,0,0-.33-.06h-.36v.64h.35A.54.54,0,0,0,22.8,11.32Z"/><path class="cls-1" d="M26.63,12.22a1.19,1.19,0,0,1-1.62,0,1.1,1.1,0,0,1-.33-.81,1.08,1.08,0,0,1,.33-.8,1.19,1.19,0,0,1,1.62,0,1.08,1.08,0,0,1,.33.8A1.1,1.1,0,0,1,26.63,12.22Zm-.16-.8a.69.69,0,0,0-.19-.5.59.59,0,0,0-.46-.21.6.6,0,0,0-.46.21.73.73,0,0,0-.18.5.72.72,0,0,0,.18.49.59.59,0,0,0,.46.2.58.58,0,0,0,.46-.2A.69.69,0,0,0,26.47,11.42Z"/><path class="cls-1" d="M30.08,11.06a.64.64,0,0,1-.42.68l.55.78h-.6l-.48-.7h-.34v.7h-.48V10.34h.82a1.24,1.24,0,0,1,.73.17A.67.67,0,0,1,30.08,11.06Zm-.59.26a.33.33,0,0,0,.09-.26.3.3,0,0,0-.09-.24.66.66,0,0,0-.33-.06h-.37v.64h.36A.54.54,0,0,0,29.49,11.32Z"/><path class="cls-1" d="M33.06,12.52l-.2-.47h-.92l-.2.47h-.52l1-2.18h.47l.94,2.18ZM32.4,11l-.27.63h.54Z"/></g></g></svg>